:SAMPLES-PER-SECOND 30
:FULLY-SPECIFIED
:DEGREES
205
root  -66.0395 34.3824 0.771144 -34.2876 -78.8325 62.9492
RightUpLeg  -73.5834 -15.8434 -0.552144
RightLeg  60.7427 1.54151 2.47596
RightFoot  -13.234 -0.190525 -6.13789
RightToes  -1.81608e-008 0 -3.6325e-017
Spine  55.5801 -6.68996 8.15742
Spine1  -3.4655 -2.56993 1.26004
HEad  -48.4539 -35.2453 18.9823
LeftShoulder1  2.20951 -6.38371 -15.5552
LeftArm  -17.6418 -61.3981 -48.079
LeftForeArm  -8.31381 -26.2097 -6.07417
LeftHand  -0.0258054 4.65099 -0.00691906
RightShoulder  0.873147 2.94068 5.81457
RightArm  -50.0595 53.1552 13.074
RightForeArm  -10.9901 31.7633 7.57395
RightHand  0.257066 11.3975 1.33669
LeftUpLeg  -26.0641 17.0729 19.0954
LeftLeg  -5.11574 2.15864 -0.457362
LeftFoot  8.74096 5.47192 -30.5396
LeftToes  1.81866e-011 -6.13092e-011 2.52013e-011
206
root  -66.0635 34.6431 1.0581 -40.6392 -78.5876 67.8501
RightUpLeg  -70.9929 -15.0678 -3.09191
RightLeg  59.5649 1.41167 2.11448
RightFoot  -12.5631 -0.148394 -6.09586
RightToes  -1.81608e-008 0 -3.6325e-017
Spine  55.0518 -6.42307 7.87101
Spine1  -4.34125 -2.53532 2.1485
HEad  -46.4081 -37.2488 16.7868
LeftShoulder1  2.31577 -6.39858 -16.7002
LeftArm  -16.336 -55.5291 -50.1592
LeftForeArm  -8.06785 -30.7754 -7.15626
LeftHand  -0.0235181 5.03403 -1.16256
RightShoulder  0.899869 2.18554 8.35592
RightArm  -45.2858 50.9761 15.3239
RightForeArm  -11.5363 37.2039 9.17591
RightHand  0.172104 10.5849 0.831604
LeftUpLeg  -24.5091 16.3474 18.2377
LeftLeg  -4.35799 2.56681 -0.576669
LeftFoot  8.36549 5.10724 -29.1242
LeftToes  1.81866e-011 -6.13092e-011 2.52013e-011
207
root  -66.0522 34.9163 1.41071 -46.2944 -78.3152 72.0431
RightUpLeg  -68.3514 -14.5065 -5.47998
RightLeg  58.227 1.43032 2.03165
RightFoot  -12.8103 -0.138917 -4.04512
RightToes  -1.81608e-008 0 -3.6325e-017
Spine  53.6654 -6.98123 8.06361
Spine1  -3.9053 -3.08991 1.70159
HEad  -46.1531 -37.4092 16.8116
LeftShoulder1  2.20059 -5.5713 -17.6369
LeftArm  -15.6018 -51.108 -50.2592
LeftForeArm  -7.79539 -34.7661 -8.23442
LeftHand  -0.0188267 4.60011 -2.0652
RightShoulder  0.807253 1.29886 9.5017
RightArm  -41.5564 48.7202 20.1572
RightForeArm  -10.6902 42.4308 10.8892
RightHand  0.171749 10.4898 0.83754
LeftUpLeg  -23.2239 15.8191 17.3784
LeftLeg  -3.1396 2.8148 -0.812762
LeftFoot  7.42669 4.68355 -28.1013
LeftToes  1.81866e-011 -6.13092e-011 2.52013e-011
208
root  -66.0498 35.2423 1.83836 -53.5981 -77.9851 77.4862
RightUpLeg  -65.2318 -13.6608 -8.12621
RightLeg  56.6449 1.55809 2.11744
RightFoot  -12.1625 -0.106053 -3.25671
RightToes  -1.81608e-008 0 -3.6325e-017
Spine  52.7536 -7.01707 7.68421
Spine1  -3.71494 -3.41583 1.95426
HEad  -44.7264 -38.3181 15.6398
LeftShoulder1  2.07329 -4.74865 -18.5623
LeftArm  -14.9174 -46.6129 -50.4263
LeftForeArm  -6.42926 -38.9329 -9.42789
LeftHand  -0.0294786 5.18633 -3.76183
RightShoulder  0.746143 0.496691 11.5997
RightArm  -37.846 46.493 22.595
RightForeArm  -10.6315 46.8931 12.7122
RightHand  0.146026 9.63499 0.74719
LeftUpLeg  -21.6468 15.3059 16.3698
LeftLeg  -1.29318 2.94842 -1.11885
LeftFoot  6.3694 4.13595 -26.3681
LeftToes  1.81866e-011 -6.13092e-011 2.52013e-011
209
root  -66.0162 35.5883 2.28867 -59.37 -77.4608 81.9072
RightUpLeg  -62.538 -12.9589 -10.6509
RightLeg  54.6434 1.70115 2.17184
RightFoot  -11.5401 -0.0803354 -1.55957
RightToes  -1.81608e-008 0 -3.6325e-017
Spine  51.7343 -6.87151 7.40354
Spine1  -4.59607 -3.44601 2.12417
HEad  -42.0274 -40.4016 13.3929
LeftShoulder1  2.0352 -4.4368 -19.1272
LeftArm  -13.1194 -41.7196 -50.9265
LeftForeArm  -5.40641 -42.8068 -10.7134
LeftHand  0.00790812 3.79657 -2.35858
RightShoulder  0.607736 -0.530007 13.5376
RightArm  -33.6924 42.8833 24.6955
RightForeArm  -11.5746 51.5669 15.063
RightHand  -0.048375 10.1416 -0.764426
LeftUpLeg  -21.0717 14.3652 15.0761
LeftLeg  1.01176 1.75206 -0.983834
LeftFoot  5.46189 3.42359 -23.1154
LeftToes  1.81866e-011 -6.13092e-011 2.52013e-011
210
root  -65.9659 35.8711 2.83206 -65.0052 -76.8692 86.7628
RightUpLeg  -60.7218 -12.3928 -13.0104
RightLeg  52.7512 2.04644 2.5068
RightFoot  -10.5546 -0.0650278 -0.939535
RightToes  -1.81608e-008 0 -3.6325e-017
Spine  49.9205 -6.44632 6.78076
Spine1  -5.26222 -3.53511 2.60422
HEad  -39.6817 -41.4135 11.8076
LeftShoulder1  2.01822 -4.08882 -20.1222
LeftArm  -12.2711 -37.7747 -50.189
LeftForeArm  -4.02635 -46.2717 -11.982
LeftHand  0.00521564 4.49499 -4.22495
RightShoulder  0.501209 -1.25726 15.9465
RightArm  -30.6307 39.4078 25.1355
RightForeArm  -10.178 55.5037 17.3915
RightHand  0.0821355 8.56999 0.283545
LeftUpLeg  -21.2391 13.2525 13.7348
LeftLeg  3.50715 -0.67229 -0.840245
LeftFoot  3.75334 2.85926 -21.5584
LeftToes  1.81866e-011 -6.13092e-011 2.52013e-011
211
root  -65.902 36.1419 3.3931 -71.6368 -76.6254 92.2715
RightUpLeg  -58.6057 -11.4162 -14.9816
RightLeg  50.6712 2.43526 2.83338
RightFoot  -9.71567 -0.070336 0.285287
RightToes  -1.81608e-008 0 -3.6325e-017
Spine  48.8172 -5.64871 6.12888
Spine1  -6.47451 -3.13667 2.92076
HEad  -36.9485 -43.5738 9.56876
LeftShoulder1  2.10101 -4.24185 -20.7216
LeftArm  -10.6178 -34.1217 -49.4862
LeftForeArm  -3.14534 -48.9612 -13.148
LeftHand  0.0217535 4.01645 -3.98126
RightShoulder  0.337431 -2.16121 18.8015
RightArm  -27.7138 35.1046 24.7305
RightForeArm  -9.15777 59.4439 20.3692
RightHand  0.0170602 7.62821 -0.214931
LeftUpLeg  -20.9666 12.7406 13.0061
LeftLeg  5.59456 -4.70151 -1.30163
LeftFoot  1.67855 2.49561 -21.7097
LeftToes  1.81866e-011 -6.13092e-011 2.52013e-011
